<?xml version="1.0" encoding="utf-8"?>
<!-- Generator: Adobe Illustrator 26.3.1, SVG Export Plug-In . SVG Version: 6.00 Build 0)  -->
<svg version="1.1" id="Layer_1" xmlns="http://www.w3.org/2000/svg" xmlns:xlink="http://www.w3.org/1999/xlink" x="0px" y="0px"
	 viewBox="0 0 36 36" style="enable-background:new 0 0 36 36;" xml:space="preserve">
<style type="text/css">
	.st0{fill:#9F9F9F;}
	.st1{fill:#CDCDCD;}
	.st2{fill:#787878;}
	.st3{fill:#585858;}
	.st4{fill:#656565;}
	.st5{fill:#B8B8B8;}
</style>
<path class="st0" d="M14.2,17.1L6.8,7.6L3,17.1H14.2z"/>
<path class="st0" d="M17.9,5.5l-6.6,12.4h13.1L17.9,5.5z"/>
<path class="st0" d="M21.8,17.1l7.4-9.5l3.7,9.5H21.8z"/>
<path class="st1" d="M28.7,15.2L23.9,3.5L18,15.2l0,0l0,0L12.1,3.5L7.3,15.2C4.2,10.8,1.3,8,1.3,8S3,20.8,3,33h30
	c0-12.2,1.7-25,1.7-25S31.8,10.8,28.7,15.2z"/>
<circle class="st2" cx="18" cy="22" r="3.7"/>
<circle class="st3" cx="26.5" cy="22" r="2.4"/>
<circle class="st4" cx="32.9" cy="22" r="2"/>
<circle class="st3" cx="9.4" cy="22" r="2.4"/>
<circle class="st4" cx="3.1" cy="22" r="2"/>
<path class="st5" d="M33,34H3c-0.6,0-1-0.4-1-1s0.4-1,1-1h30c0.6,0,1,0.4,1,1S33.6,34,33,34z M33,30.5H3c-0.6,0-1-0.4-1-1s0.4-1,1-1
	h30c0.6,0,1,0.4,1,1S33.6,30.5,33,30.5z"/>
<circle class="st1" cx="1.4" cy="8" r="1.4"/>
<circle class="st0" cx="6.8" cy="7.6" r="1.2"/>
<circle class="st1" cx="12.1" cy="3.5" r="1.8"/>
<circle class="st1" cx="34.6" cy="8" r="1.4"/>
<circle class="st0" cx="29.2" cy="7.6" r="1.2"/>
<circle class="st1" cx="23.9" cy="3.5" r="1.8"/>
<circle class="st0" cx="17.9" cy="5.5" r="1.8"/>
</svg>
