<?xml version="1.0" encoding="utf-8"?>
<!-- Generator: Adobe Illustrator 26.3.1, SVG Export Plug-In . SVG Version: 6.00 Build 0)  -->
<svg version="1.1" id="a" xmlns="http://www.w3.org/2000/svg" xmlns:xlink="http://www.w3.org/1999/xlink" x="0px" y="0px"
	 viewBox="0 0 245.2 219.9" style="enable-background:new 0 0 245.2 219.9;" xml:space="preserve">
<style type="text/css">
	.st0{fill:none;stroke:#4C4C4C;stroke-width:10;stroke-miterlimit:10;}
	.st1{fill:none;stroke:#4C4C4C;stroke-width:12;stroke-linecap:round;stroke-miterlimit:10;}
</style>
<path class="st0" d="M144.3,210.9c-0.6,0-43.4,0-43.8,0H46.3c-6.1,0-15.4-77.6-15.4-83.7l0,0c0-0.6,0.3-1.3,0.7-1.7
	c30.1-30.2,60.2-60.2,90.4-90.4c0.2-0.2,1.3,0,1.6,0.3l0,0.1c30,30,59.8,59.8,89.8,89.8c0.7,0.7,0.9,1.4,0.9,2.4l0,0
	c-1.6,3.1-15.2,83.3-18.6,83.3h-51c-0.2,0-0.3,0-0.6,0 M148,116.7L148,116.7c0-14-11.4-25.4-25.4-25.4h0c-14,0-25.4,11.4-25.4,25.4
	v0c0,14,11.4,25.4,25.4,25.4h0C136.6,142,148,130.7,148,116.7z"/>
<path class="st0" d="M123.9,9c3.4,0.6,5.8,2.8,8.2,5.1C145,27,157.9,39.9,170.8,52.8c0.3,0.3,0.7,0.6,1.1,1c0-0.6,0-1,0-1.4
	c0-3.1,0-6.3,0.2-9.3c0.4-5.2,4.7-9.2,10.1-9.4c5-0.2,9.7,3.4,10.7,8.3c0.2,0.9,0.3,2,0.3,2.9c0,9.7,0,19.3,0,28.9
	c0,0.9,0.3,1.5,0.9,2.1c12.6,12.6,25.3,25.2,37.9,37.8c2.1,2.1,3.5,4.6,3.6,7.6c0.2,4.4-2.4,8.3-6.4,10.1c-4.1,1.7-8.5,0.9-11.8-2.4
	c-5.4-5.3-10.7-10.7-16.1-16.1c-25.9-25.9-51.8-51.8-77.8-77.8c-0.3-0.3-1.6-0.2-2,0.2c-31.1,31.2-62.1,62.2-93.1,93.3
	c-1.8,1.8-3.9,3.2-6.5,3.6c-5.5,0.9-10.8-2.8-11.9-8.2c0-0.3-0.2-0.6-0.3-0.9v-2.8c0.6-3.4,2.8-5.8,5.1-8.2
	c4.2-4.2,8.3-8.3,12.4-12.4c28.7-28.6,57.4-57.4,86-86c2.3-2.3,4.6-4.5,8.1-5L123.9,9L123.9,9z"/>
<line class="st1" x1="87.8" y1="179.2" x2="157.4" y2="179.2"/>
</svg>
