<?xml version="1.0" encoding="utf-8"?>
<!-- Generator: Adobe Illustrator 26.3.1, SVG Export Plug-In . SVG Version: 6.00 Build 0)  -->
<svg version="1.1" id="Layer_1" xmlns="http://www.w3.org/2000/svg" xmlns:xlink="http://www.w3.org/1999/xlink" x="0px" y="0px"
	 viewBox="0 0 36 36" style="enable-background:new 0 0 36 36;" xml:space="preserve">
<style type="text/css">
	.st0{fill:#787878;}
	.st1{fill:#363636;}
	.st2{fill:#CDCDCD;}
	.st3{fill:#969696;}
	.st4{fill:#E9E9E9;}
	.st5{fill:#727272;}
	.st6{fill:#818181;}
	.st7{fill:#999999;}
</style>
<path class="st0" d="M36,33.5c0,0.8-0.7,1.5-1.5,1.5h-33C0.7,35,0,34.3,0,33.5S0.7,32,1.5,32h33C35.3,32,36,32.7,36,33.5z"/>
<path class="st1" d="M12.3,14.7h-2c-0.3,0-0.5-0.2-0.5-0.5v-7c0-0.3,0.2-0.5,0.5-0.5h2c0.3,0,0.5,0.2,0.5,0.5v7
	C12.8,14.5,12.6,14.7,12.3,14.7z"/>
<path class="st2" d="M5.9,32c-0.1-4.7-0.5-8-0.9-8c-0.4,0-0.8,3.3-0.9,8H5.9z"/>
<path class="st3" d="M10,18.7c0,5.6-2.2,7.3-5,7.3c-2.8,0-5-1.7-5-7.3C0,13.2,4,5,5,5S10,13.2,10,18.7z"/>
<path class="st4" d="M8,16L21,3l13,13v16H8V16z"/>
<path class="st2" d="M21,16h1v16h-1V16z"/>
<path class="st5" d="M34,17c-0.3,0-0.5-0.1-0.7-0.3L21,4.4L8.7,16.7c-0.4,0.4-1,0.4-1.4,0s-0.4-1,0-1.4l13-13c0.4-0.4,1-0.4,1.4,0
	l13,13c0.4,0.4,0.4,1,0,1.4C34.5,16.9,34.3,17,34,17z"/>
<path class="st5" d="M21,17c-0.3,0-0.5-0.1-0.7-0.3c-0.4-0.4-0.4-1,0-1.4l6.5-6.5c0.4-0.4,1-0.4,1.4,0s0.4,1,0,1.4l-6.5,6.5
	C21.5,16.9,21.3,17,21,17z"/>
<path class="st6" d="M13,26h4v6h-4V26z"/>
<path class="st7" d="M13,17h4v4h-4V17z M25.5,17h4v4h-4V17z M25.5,26h4v4h-4V26z"/>
<path class="st3" d="M10.6,30c0,1.6-0.9,2.1-1.9,2.1c-1.1,0-1.9-0.5-1.9-2.1s1.5-4,1.9-4S10.6,28.4,10.6,30z M35.9,30
	c0,1.6-0.9,2.1-1.9,2.1c-1.1,0-1.9-0.5-1.9-2.1s1.5-4,1.9-4S35.9,28.4,35.9,30z"/>
</svg>
