<?xml version="1.0" encoding="utf-8"?>
<!-- Generator: Adobe Illustrator 26.3.1, SVG Export Plug-In . SVG Version: 6.00 Build 0)  -->
<svg version="1.1" id="Layer_1" xmlns="http://www.w3.org/2000/svg" xmlns:xlink="http://www.w3.org/1999/xlink" x="0px" y="0px"
	 viewBox="0 0 36 36" style="enable-background:new 0 0 36 36;" xml:space="preserve">
<style type="text/css">
	.st0{fill:#ADADAD;}
	.st1{fill:#343434;}
	.st2{fill:#818181;}
	.st3{opacity:0.3;fill:#343434;enable-background:new    ;}
	.st4{opacity:0.15;fill:#343434;enable-background:new    ;}
	.st5{fill:#DBDBDB;}
	.st6{fill:#B8B8B8;}
	.st7{opacity:0.9;fill:#818181;enable-background:new    ;}
	.st8{opacity:0.7;fill:#818181;enable-background:new    ;}
</style>
<path class="st0" d="M31,18H5c-1.1,0-2,0.9-2,2v15c0,0.5,0.5,1,1,1h28c0.5,0,1-0.5,1-1V20C33,18.9,32.1,18,31,18z"/>
<path class="st1" d="M14,26h8v10h-8V26z"/>
<path class="st2" d="M33,24.7v-2.3H3v2.3c0.3-0.1,0.6-0.4,0.6-0.4s0.5,0.5,1,0.5c0.5,0.1,0.8-0.6,0.8-0.6s0.4,0.5,1,0.5
	s0.8-0.5,0.8-0.5s0.2,0.5,0.8,0.5s0.8-0.5,0.8-0.5s0.1,0.5,0.9,0.5s0.8-0.5,0.8-0.5s0.2,0.4,0.8,0.5c0.5,0,0.8-0.4,0.8-0.4
	s0.4,0.5,0.9,0.5c0.6,0,0.8-0.4,0.8-0.4s0.1,0.5,0.7,0.5c0.6,0,0.9-0.6,0.9-0.6s0,0.5,0.7,0.5c0.7,0,0.9-0.5,0.9-0.5s0,0.5,0.6,0.5
	s1-0.5,1-0.5s0,0.6,0.8,0.5c0.8,0,0.9-0.5,0.9-0.5s0.2,0.5,0.8,0.5c0.5,0,0.8-0.5,0.8-0.5s0,0.6,0.7,0.5c0.7-0.1,0.8-0.5,0.8-0.5
	s0.1,0.7,0.8,0.6s0.8-0.6,0.8-0.6S25.4,25,26,25c0.6,0,0.8-0.5,0.8-0.5s0,0.6,0.7,0.5c0.7,0,1-0.6,1-0.6s0.2,0.5,0.9,0.5
	s0.8-0.5,0.8-0.5s0.2,0.5,0.8,0.5s0.8-0.5,0.8-0.5s0.4,0.5,0.8,0.5C32.7,24.9,32.9,24.8,33,24.7z"/>
<path class="st3" d="M5,36H4c-0.6,0-1-0.4-1-1V21h2V36z M32,36h-1V21h2v14C33,35.6,32.6,36,32,36z"/>
<path class="st4" d="M5,21h5v15H5V21z M26,21h5v15h-5V21z"/>
<path class="st5" d="M18.2,4.2c-0.2-0.1-0.4-0.1-0.6,0c-1.2,0.8-5.7,4.6-10.4,9c-3.7,3.5-6.1,7.4-7.2,8.8c-0.3,0.4,0,0.9,0.4,0.9
	h34.9c0.5,0,0.7-0.6,0.4-1c-1.6-1.9-5.2-6.9-8.2-9.7C24.1,9,19.4,5.1,18.2,4.2z"/>
<path class="st5" d="M17,5.2c0,0-1-1.3-0.8-1.8C16.3,3,17,3,17,3.4c0,0,0.2-0.8,0.6-0.9c0.4-0.1,0.6,0.7,0.6,0.7s0.4-0.7,0.8-0.6
	s0.1,0.9,0.1,0.9s0.3-0.5,0.8-0.2s-1.2,2.1-1.2,2.1S17.3,5.7,17,5.2z M1.6,22.3c-0.2,0.7,0.3,1.2,0.7,1.3s1-0.5,1-0.5s0.5,0.5,1,0.6
	S5.2,23,5.2,23s0.4,0.6,1,0.6S7.1,23,7.1,23s0.2,0.6,0.8,0.6S8.8,23,8.8,23s0.1,0.5,0.9,0.6s0.8-0.6,0.8-0.6s0.2,0.5,0.8,0.5
	s0.9-0.5,0.9-0.5s0.4,0.6,1,0.6s0.9-0.5,0.9-0.5s0.1,0.6,0.7,0.6s0.9-0.7,0.9-0.7s0,0.6,0.7,0.6c0.7,0,0.9-0.6,0.9-0.6
	s0,0.6,0.6,0.6s1-0.6,1-0.6s0,0.7,0.8,0.6c0.8,0,1-0.6,1-0.6s0.2,0.6,0.8,0.6c0.5,0,0.8-0.6,0.8-0.6s0,0.7,0.7,0.6
	c0.7-0.1,0.8-0.6,0.8-0.6s0.1,0.8,0.8,0.7s0.9-0.7,0.9-0.7s0.2,0.7,0.8,0.7s0.8-0.6,0.8-0.6s0,0.7,0.7,0.6c0.7,0,1-0.7,1-0.7
	s0.2,0.6,1,0.6s0.8-0.6,0.8-0.6s0.2,0.6,0.9,0.5s0.8-0.5,0.8-0.5s0.4,0.5,0.8,0.5s0.7-0.6,0.7-0.6s0.3,0.7,0.9,0.6
	c0.6-0.1,0.5-0.9,0.5-0.9l-1.1-1L4.8,21.6C4.8,21.6,1.6,22.3,1.6,22.3z"/>
<path class="st6" d="M16.1,7.1c0,0-6.5,5-8.7,7.3s-4.4,6.9-4.4,6.9s4.2-5.6,5.2-6.8C9.3,13.4,16.1,7.1,16.1,7.1z M21.6,8.6
	c0,0,2.4,2.9,3.5,4.1c1.1,1.2,4.8,8.3,4.8,8.3s-3.5-5.3-4.7-7.2C24.3,12.6,21.6,8.6,21.6,8.6z M15.5,9.3c0,0-2.7,3-4,5.3
	C10.2,16.8,9.4,20,9.4,20s3-5,3.7-6.5C13.2,13.5,15.5,9.3,15.5,9.3z M19.1,10.2c0,0,0.2,3.1,0.7,5.6c0.4,2.3,1.1,5.9,1.1,5.9
	s-0.3-4.4-0.7-6.9C19.9,12.5,19.1,10.2,19.1,10.2z"/>
<g>
	<path class="st7" d="M5,27.3C5,27.3,4,33,5,35C5,35,5,30.2,5,29.2S5,27.3,5,27.3z M31,26.4c0,0,1,7,0,9c0,0-0.2-5.5-0.2-6.5
		S31,26.4,31,26.4z"/>
	<path class="st8" d="M10,25.7c0,0-0.9,8,0,10c0,0,0.1-6.1,0.1-7.1S10,25.7,10,25.7z M25.9,25.4c0,0,1,7.4,0.1,9.4
		c0,0-0.2-4.5-0.2-5.5S25.9,25.4,25.9,25.4z"/>
</g>
</svg>
