<?xml version="1.0" encoding="UTF-8"?><svg id="a" xmlns="http://www.w3.org/2000/svg" viewBox="0 0 245.2 219.9"><defs><style>.b{fill:none;stroke:#000;stroke-miterlimit:10;stroke-width:7px;}</style></defs><path class="b" d="M124,3.5c3.6,.6,6.1,2.9,8.6,5.4,13.6,13.6,27.2,27.2,40.8,40.8,.3,.3,.7,.6,1.2,1.1,0-.6,0-1.1,0-1.5,0-3.3,0-6.6,.2-9.8,.4-5.5,5-9.7,10.6-9.9,5.3-.2,10.2,3.6,11.3,8.8,.2,1,.3,2.1,.3,3.1,0,10.2,0,20.3,0,30.5,0,.9,.3,1.6,.9,2.2,13.3,13.3,26.7,26.6,40,39.9,2.2,2.2,3.7,4.8,3.8,8,.2,4.6-2.5,8.8-6.7,10.6-4.3,1.8-9,.9-12.4-2.5-5.7-5.6-11.3-11.3-17-17-27.3-27.3-54.6-54.6-82-82-.3-.3-1.7-.2-2.1,.2C88.7,64.3,56,97,23.3,129.8c-1.9,1.9-4.1,3.4-6.9,3.8-5.8,.9-11.4-2.9-12.6-8.6,0-.3-.2-.6-.3-.9v-2.9c.6-3.6,2.9-6.1,5.4-8.6,4.4-4.4,8.7-8.7,13.1-13.1,30.3-30.2,60.5-60.5,90.7-90.7,2.4-2.4,4.9-4.7,8.5-5.3h2.9Z"/><path class="b" d="M123.6,31.4c31.6,31.6,63.1,63.1,94.7,94.7,.7,.7,1,1.5,1,2.5,0,25.4,0,50.9,0,76.3,0,5.5-3.2,9.8-8.3,11.1-.8,.2-1.6,.4-2.4,.4-7.4,0-14.7,0-22.1,0-.2,0-.3,0-.6,0V127.2h-44.6v89.2c-.6,0-1,0-1.4,0-34.1,0-68.2,0-102.3,0-6.9,0-11.7-4.8-11.7-11.7,0-25.5,0-51,0-76.6,0-.6,.3-1.4,.7-1.8,31.7-31.8,63.5-63.5,95.3-95.3,.2-.2,1.4,0,1.7,.3Zm-19.7,140.3v-44.5H59.4v44.5h44.5Z"/><path class="b" d="M103.9,171.7H59.4v-44.5h44.5v44.5Z"/></svg>